<svg xmlns="http://www.w3.org/2000/svg" viewBox="0 0 64 64">
<defs>
 <clipPath id="scc"><path d="M15 17 H49 L46.4 52 Q46 56.5 41.6 56.5 H22.4 Q18 56.5 17.6 52 Z"/></clipPath>
 <linearGradient id="scl" x1="0" y1="0" x2="0" y2="1"><stop offset="0" stop-color="#FBF3D6"/><stop offset="1" stop-color="#F1E2AE"/></linearGradient>
 <linearGradient id="scb" x1="0" y1="0" x2="0" y2="1"><stop offset="0" stop-color="#E3EEF3"/><stop offset="1" stop-color="#C3D6DF"/></linearGradient>
</defs>
<path d="M15 17 H49 L46.4 52 Q46 56.5 41.6 56.5 H22.4 Q18 56.5 17.6 52 Z" fill="#EEF5F9"/>
<g clip-path="url(#scc)">
 <rect x="10" y="25" width="44" height="18" fill="url(#scl)"/>
 <ellipse cx="32" cy="25" rx="16" ry="1.7" fill="#FFFBEA"/>
 <rect x="10" y="42" width="44" height="16" fill="url(#scb)"/>
 <path d="M18 42.5 H46" stroke="#AFC6D1" stroke-width="1.2"/>
 <path d="M24 46 L22.5 54 M32 46 V54.5 M40 46 L41.5 54" stroke="#fff" stroke-width="1.4" opacity=".7" stroke-linecap="round"/>
 <rect x="19.5" y="20" width="3.2" height="22" rx="1.6" fill="#fff" opacity=".85"/>
</g>
<path d="M15 17 H49 L46.4 52 Q46 56.5 41.6 56.5 H22.4 Q18 56.5 17.6 52 Z" fill="none" stroke="#9DB4C0" stroke-width="1.8" stroke-linejoin="round"/>
<path d="M37 22.5 H44.5" stroke="#9DB4C0" stroke-width="1.4" stroke-linecap="round"/>
<ellipse cx="32" cy="17" rx="17" ry="2.2" fill="#F5FAFC" stroke="#9DB4C0" stroke-width="1.5"/>
</svg>
